<?xml version="1.0" encoding="UTF-8" standalone="no"?>
<!DOCTYPE svg PUBLIC "-//W3C//DTD SVG 1.1//EN" "http://www.w3.org/Graphics/SVG/1.1/DTD/svg11.dtd">
<svg width="100%" height="100%" viewBox="0 0 128 128" version="1.1" xmlns="http://www.w3.org/2000/svg" xmlns:xlink="http://www.w3.org/1999/xlink" xml:space="preserve" xmlns:serif="http://www.serif.com/" style="fill-rule:evenodd;clip-rule:evenodd;stroke-linejoin:round;stroke-miterlimit:2;">
    <g transform="matrix(3.99678,0,0,3.81008,-2.0081,-3.1131)">
        <path d="M17.288,34.15C8.162,34.15 0.753,26.741 0.753,17.615C0.753,8.489 8.162,1.08 17.288,1.08L33.823,1.08L33.823,34.15L17.288,34.15Z" style="fill:rgb(149,191,71);"/>
    </g>
    <g transform="matrix(0.0243244,0.0236719,0.0236719,-0.0243244,-104.547,62.9708)">
        <g id="Layer1">
            <path d="M4131.57,5464.78C4088.57,5425.78 3873,5266 3440,4915C3078,4621 3023,4568 2911,4402C2795,4230 2730,3988 2744,3780C2752,3648 2781,3545 2844,3414C3018,3060 3341,2810 3750,2713C3947,2666 4300,2672 4515,2726C4745,2783 4997,2890 5192,3013C5375,3128 5681,3366 6090,3709C6192,3795 6314,3897 6362,3937C6453,4014 6477,4053 6464,4104C6455,4142 6405,4180 6366,4180C6328,4180 6332,4182 6079,3970C5693,3646 5299,3334 5142,3228C4946,3096 4730,2996 4527,2943C4435,2919 4407,2916 4250,2915C4094,2915 4067,2918 4000,2938C3758,3013 3583,3200 3544,3425C3524,3535 3544,3659 3597,3764C3635,3840 3750,3948 3840,3992C3990,4065 4090,4078 4383,4060C4569,4049 4608,4049 4700,4063C4900,4093 5022,4154 5245,4334L5301.62,4372.86L5156.71,4521.77C5152.71,4521.77 5155,4531 5115,4496C4955,4356 4845,4298 4692,4273C4600,4258 4569,4258 4392,4270C4090,4289 3908,4262 3725,4167C3664,4136 3624,4105 3555,4035C3399,3878 3341,3746 3333,3530C3327,3389 3338,3314 3375,3231L3400,3175L3375,3205C3332,3255 3273,3385 3254,3467C3229,3574 3229,3741 3254,3840C3281,3950 3339,4055 3422,4145C3462,4187 3606,4312 3742,4422C4072,4686 4360,4920 4494,5032L4586.89,5107.3L4447.87,5250.15C4443.87,5250.15 4408,5225 4357,5183C4306,5140 4186,5042 4090,4965C3995,4888 3842,4764 3751,4690C3660,4616 3536,4516 3475,4469C3242,4286 3117,4119 3056,3908C3026,3805 3006,3653 3013,3586C3018,3539 3017,3541 2988,3625C2946,3750 2939,3889 2968,4011C3009,4181 3096,4343 3201,4448C3225,4472 3371,4594 3524,4718C3737,4891 4295.65,5347.71 4326.65,5374.71L4188.21,5517.46C4188.21,5517.46 4156.57,5486.78 4131.57,5464.78Z" style="fill:white;fill-rule:nonzero;"/>
        </g>
    </g>
</svg>
