<?xml version="1.0" encoding="UTF-8" standalone="no"?>
<!DOCTYPE svg PUBLIC "-//W3C//DTD SVG 1.1//EN" "http://www.w3.org/Graphics/SVG/1.1/DTD/svg11.dtd">
<svg width="100%" height="100%" viewBox="0 0 737 189" version="1.1" xmlns="http://www.w3.org/2000/svg" xmlns:xlink="http://www.w3.org/1999/xlink" xml:space="preserve" xmlns:serif="http://www.serif.com/" style="fill-rule:evenodd;clip-rule:evenodd;stroke-linejoin:round;stroke-miterlimit:2;">
    <g transform="matrix(0.0481629,0.0468709,0.0468709,-0.0481629,-292.766,79.2828)">
        <path d="M4131.57,5464.78C4088.57,5425.78 3873,5266 3440,4915C3078,4621 3023,4568 2911,4402C2795,4230 2730,3988 2744,3780C2752,3648 2781,3545 2844,3414C3018,3060 3341,2810 3750,2713C3947,2666 4300,2672 4515,2726C4745,2783 4997,2890 5192,3013C5375,3128 5681,3366 6090,3709C6192,3795 6314,3897 6362,3937C6453,4014 6477,4053 6464,4104C6455,4142 6405,4180 6366,4180C6328,4180 6332,4182 6079,3970C5693,3646 5299,3334 5142,3228C4946,3096 4730,2996 4527,2943C4435,2919 4407,2916 4250,2915C4094,2915 4067,2918 4000,2938C3758,3013 3583,3200 3544,3425C3524,3535 3544,3659 3597,3764C3635,3840 3750,3948 3840,3992C3990,4065 4090,4078 4383,4060C4569,4049 4608,4049 4700,4063C4900,4093 5022,4154 5245,4334L5301.62,4372.86L5156.71,4521.77C5152.71,4521.77 5155,4531 5115,4496C4955,4356 4845,4298 4692,4273C4600,4258 4569,4258 4392,4270C4090,4289 3908,4262 3725,4167C3664,4136 3624,4105 3555,4035C3399,3878 3341,3746 3333,3530C3327,3389 3338,3314 3375,3231L3400,3175L3375,3205C3332,3255 3273,3385 3254,3467C3229,3574 3229,3741 3254,3840C3281,3950 3339,4055 3422,4145C3462,4187 3606,4312 3742,4422C4072,4686 4360,4920 4494,5032L4586.89,5107.3L4447.87,5250.15C4443.87,5250.15 4408,5225 4357,5183C4306,5140 4186,5042 4090,4965C3995,4888 3842,4764 3751,4690C3660,4616 3536,4516 3475,4469C3242,4286 3117,4119 3056,3908C3026,3805 3006,3653 3013,3586C3018,3539 3017,3541 2988,3625C2946,3750 2939,3889 2968,4011C3009,4181 3096,4343 3201,4448C3225,4472 3371,4594 3524,4718C3737,4891 4295.65,5347.71 4326.65,5374.71L4188.21,5517.46C4188.21,5517.46 4156.57,5486.78 4131.57,5464.78Z" style="fill:rgb(149,191,71);fill-rule:nonzero;"/>
    </g>
    <g transform="matrix(0.0481629,0.0468709,0.0468709,-0.0481629,-292.766,78.2828)">
        <path d="M4810,4784C4659,4651 4584,4612 4446,4595C4397,4589 4380,4582 4353,4555C4311,4513 4309,4473 4348,4429C4384,4388 4441,4382 4547,4405C4709,4441 4783,4484 4999,4670L5008.73,4673.83L4862.79,4823.79C4859.79,4822.79 4857,4825 4810,4784Z" style="fill:rgb(149,191,71);fill-rule:nonzero;"/>
    </g>
    <g transform="matrix(0.0481629,0.0468709,0.0468709,-0.0481629,-292.766,78.2828)">
        <path d="M5377.42,4221.65C5144.43,4008.06 5079.99,3976.19 4909.99,3931.19C4818.99,3907.19 4624,3891 4240,3901C4087,3905 4070,3903 4005,3882C3752,3798 3637,3563 3740,3342C3798,3217 3945,3107 4089,3080C4369,3027 4773,3157 5125,3414C5163,3442 5219,3481 5247,3500C5316,3546 5337,3584 5320,3634C5307,3674 5280,3696 5233,3706C5200,3713 5158,3695 5100,3650C5013,3582 4816,3458 4721,3410C4529,3314 4367,3274 4209,3283C4095,3289 4054,3301 3998,3343C3916,3406 3888,3498 3929,3578C3954,3627 3974,3644 4045,3676C4117,3709 4186.24,3689.6 4445,3692C4751.4,3694.84 5090.27,3691.35 5455.56,4020.56L5552.58,4114.98L5413.67,4257.73L5377.42,4221.65Z" style="fill:rgb(149,191,71);fill-rule:nonzero;"/>
    </g>
    <g transform="matrix(2.53229,-0.0367306,0.0367306,2.53229,-1119.65,-330.761)">
        <path d="M532.927,193.55L517.177,193.55L510.754,193.449L510.848,187.151L510.848,148.409L510.948,141.917L517.177,142.011L533.876,142.011C536.337,142.011 538.469,142.163 540.274,142.468C542.079,142.772 543.696,143.358 545.126,144.225C546.344,144.952 547.423,145.872 548.36,146.985C549.298,148.099 550.012,149.329 550.505,150.677C550.997,152.024 551.243,153.448 551.243,154.948C551.243,160.104 548.665,163.878 543.509,166.268C550.282,168.425 553.669,172.62 553.669,178.854C553.669,181.737 552.93,184.333 551.454,186.642C549.977,188.95 547.985,190.655 545.477,191.757C543.907,192.413 542.102,192.876 540.063,193.145C538.024,193.415 535.645,193.55 532.927,193.55ZM532.153,170.663L521.29,170.663L521.29,185.71L532.505,185.71C539.559,185.71 543.087,183.167 543.087,178.081C543.087,175.479 542.173,173.593 540.344,172.421C538.516,171.249 535.786,170.663 532.153,170.663ZM521.29,149.85L521.29,163.175L530.852,163.175C533.454,163.175 535.464,162.929 536.882,162.436C538.3,161.944 539.384,161.007 540.134,159.624C540.719,158.64 541.012,157.538 541.012,156.319C541.012,153.718 540.087,151.989 538.235,151.134C536.384,150.278 533.559,149.85 529.762,149.85L521.29,149.85Z" style="fill-rule:nonzero;"/>
        <path d="M569.531,171.507L565.875,171.507L565.875,188.065C565.875,190.245 565.394,191.85 564.434,192.882C563.473,193.913 562.219,194.429 560.672,194.429C559.008,194.429 557.719,193.89 556.805,192.811C555.891,191.733 555.434,190.151 555.434,188.065L555.434,148.409C555.434,146.159 555.937,144.53 556.945,143.522C557.953,142.515 559.582,142.011 561.832,142.011L578.812,142.011C581.156,142.011 583.16,142.11 584.824,142.309C586.488,142.509 587.988,142.913 589.324,143.522C590.941,144.202 592.371,145.175 593.613,146.44C594.855,147.706 595.799,149.177 596.443,150.852C597.088,152.528 597.41,154.304 597.41,156.179C597.41,160.022 596.326,163.093 594.158,165.39C591.99,167.686 588.703,169.315 584.297,170.276C586.148,171.261 587.918,172.714 589.605,174.636C591.293,176.558 592.799,178.602 594.123,180.77C595.447,182.938 596.478,184.895 597.217,186.642C597.955,188.388 598.324,189.589 598.324,190.245C598.324,190.925 598.107,191.599 597.674,192.267C597.24,192.934 596.648,193.462 595.898,193.849C595.148,194.235 594.281,194.429 593.297,194.429C592.125,194.429 591.141,194.153 590.344,193.602C589.547,193.052 588.861,192.354 588.287,191.511C587.713,190.667 586.934,189.425 585.949,187.784L581.766,180.823C580.266,178.268 578.924,176.323 577.74,174.987C576.557,173.651 575.355,172.737 574.137,172.245C572.918,171.753 571.383,171.507 569.531,171.507ZM575.508,149.85L565.875,149.85L565.875,164.018L575.227,164.018C577.734,164.018 579.844,163.802 581.555,163.368C583.266,162.934 584.572,162.196 585.475,161.153C586.377,160.11 586.828,158.675 586.828,156.847C586.828,155.417 586.465,154.157 585.738,153.067C585.012,151.977 584.004,151.163 582.715,150.624C581.496,150.108 579.094,149.85 575.508,149.85Z" style="fill-rule:nonzero;"/>
        <path d="M598.366,172.245L598.366,147.46C598.366,145.35 598.841,143.768 599.79,142.714C600.739,141.659 601.987,141.132 603.534,141.132C605.152,141.132 606.435,141.659 607.384,142.714C608.333,143.768 608.808,145.35 608.808,147.46L608.808,172.808C608.808,175.69 609.13,178.099 609.775,180.032C610.419,181.966 611.562,183.466 613.202,184.532C614.843,185.599 617.14,186.132 620.093,186.132C624.171,186.132 627.054,185.048 628.741,182.88C630.429,180.712 631.273,177.425 631.273,173.018L631.273,147.46C631.273,145.327 631.741,143.739 632.679,142.696C633.616,141.653 634.87,141.132 636.441,141.132C638.011,141.132 639.282,141.653 640.255,142.696C641.228,143.739 641.714,145.327 641.714,147.46L641.714,172.245C641.714,176.276 641.321,179.64 640.536,182.335C639.751,185.03 638.269,187.397 636.089,189.436C634.214,191.171 632.034,192.436 629.55,193.233C627.066,194.03 624.159,194.429 620.831,194.429C616.87,194.429 613.46,194.001 610.601,193.145C607.741,192.29 605.409,190.966 603.605,189.173C601.8,187.38 600.476,185.083 599.632,182.282C598.788,179.481 598.366,176.136 598.366,172.245Z" style="fill-rule:nonzero;"/>
        <path d="M684.963,178.081C684.963,181.198 684.161,183.999 682.555,186.483C680.95,188.968 678.6,190.913 675.506,192.319C672.412,193.725 668.744,194.429 664.502,194.429C659.416,194.429 655.221,193.468 651.916,191.546C649.573,190.163 647.668,188.317 646.203,186.009C644.739,183.7 644.006,181.456 644.006,179.276C644.006,178.011 644.446,176.927 645.325,176.024C646.203,175.122 647.323,174.671 648.682,174.671C649.784,174.671 650.715,175.022 651.477,175.725C652.239,176.429 652.889,177.472 653.428,178.854C654.084,180.495 654.793,181.866 655.555,182.968C656.317,184.069 657.389,184.977 658.772,185.692C660.155,186.407 661.971,186.765 664.221,186.765C667.315,186.765 669.828,186.044 671.762,184.602C673.696,183.161 674.662,181.362 674.662,179.206C674.662,177.495 674.141,176.106 673.098,175.04C672.055,173.974 670.707,173.159 669.055,172.597C667.403,172.034 665.194,171.436 662.428,170.804C658.725,169.936 655.625,168.923 653.129,167.763C650.633,166.602 648.653,165.02 647.188,163.017C645.723,161.013 644.991,158.522 644.991,155.546C644.991,152.71 645.764,150.19 647.311,147.987C648.858,145.784 651.096,144.091 654.026,142.907C656.955,141.724 660.401,141.132 664.362,141.132C667.526,141.132 670.262,141.524 672.571,142.309C674.879,143.095 676.795,144.138 678.319,145.438C679.842,146.739 680.955,148.104 681.659,149.534C682.362,150.964 682.713,152.358 682.713,153.718C682.713,154.96 682.274,156.079 681.395,157.075C680.516,158.071 679.42,158.569 678.108,158.569C676.912,158.569 676.004,158.27 675.383,157.673C674.762,157.075 674.088,156.097 673.362,154.737C672.424,152.792 671.299,151.274 669.987,150.184C668.674,149.095 666.565,148.55 663.659,148.55C660.963,148.55 658.789,149.142 657.137,150.325C655.485,151.509 654.659,152.933 654.659,154.597C654.659,155.628 654.94,156.518 655.502,157.268C656.065,158.018 656.838,158.663 657.823,159.202C658.807,159.741 659.803,160.163 660.811,160.468C661.819,160.772 663.483,161.218 665.803,161.804C668.709,162.483 671.34,163.233 673.696,164.054C676.051,164.874 678.055,165.87 679.707,167.042C681.36,168.214 682.649,169.696 683.575,171.489C684.5,173.282 684.963,175.479 684.963,178.081Z" style="fill-rule:nonzero;"/>
        <path d="M697.134,147.46L697.134,162.225L719.669,162.225L719.669,147.46C719.669,145.35 720.144,143.768 721.093,142.714C722.043,141.659 723.291,141.132 724.837,141.132C726.408,141.132 727.679,141.653 728.652,142.696C729.625,143.739 730.111,145.327 730.111,147.46L730.111,188.065C730.111,190.198 729.619,191.792 728.634,192.847C727.65,193.901 726.384,194.429 724.837,194.429C723.267,194.429 722.013,193.895 721.076,192.829C720.138,191.763 719.669,190.175 719.669,188.065L719.669,170.733L697.134,170.733L697.134,188.065C697.134,190.198 696.642,191.792 695.658,192.847C694.673,193.901 693.408,194.429 691.861,194.429C690.291,194.429 689.037,193.895 688.099,192.829C687.162,191.763 686.693,190.175 686.693,188.065L686.693,147.46C686.693,145.35 687.156,143.768 688.082,142.714C689.007,141.659 690.267,141.132 691.861,141.132C693.431,141.132 694.703,141.653 695.675,142.696C696.648,143.739 697.134,145.327 697.134,147.46Z" style="fill-rule:nonzero;"/>
    </g>
</svg>
